<?xml version="1.0" encoding="UTF-8" standalone="no"?>
<svg xmlns="http://www.w3.org/2000/svg" xmlns:xlink="http://www.w3.org/1999/xlink" width="150" height="150" version="1.0">
  <defs>
    <linearGradient id="a">
      <stop offset="0" stop-color="#c8c8c8"/>
      <stop offset="1" stop-color="#fff" stop-opacity="0"/>
    </linearGradient>
    <linearGradient xlink:href="#a" id="e" x1="32.485081" x2="39.085705" y1="18.173479" y2="35.936974" gradientTransform="matrix(.79625 0 0 .747 64.11903 1.084587)" gradientUnits="userSpaceOnUse"/>
    <linearGradient xlink:href="#a" id="d" x1="32.485081" x2="39.085705" y1="18.173479" y2="35.936974" gradientTransform="matrix(.79625 0 0 .747 9.781798 4.994596)" gradientUnits="userSpaceOnUse"/>
    <linearGradient id="b">
      <stop offset="0" stop-color="#e2e2e2"/>
      <stop offset="1" stop-color="#fff"/>
    </linearGradient>
    <radialGradient xlink:href="#b" id="c" cx="381.42023" cy="333.27771" r="316.51691" fx="381.42023" fy="333.27771" gradientTransform="matrix(.20013 -.00155 .0015 .16311 -2.11855 19.04434)" gradientUnits="userSpaceOnUse" spreadMethod="pad"/>
  </defs>
  <g fill-rule="evenodd" color="#000">
    <path fill="#3c3e4b" stroke="#3c3e4b" stroke-linecap="round" stroke-linejoin="round" stroke-width="3.625" d="M83.769021 16.042119c-.557637-.023991-1.05187-.007215-1.46875.03125-3.318337.306174-4.79022 2.35606-5.125 4.90625-.674023 5.134459.054842 10.052882-.6875 15.09375-.390574 2.652199-2.832915 4.162724-5.34375 4.46875-2.510833.306024-3.794764-1.617878-4.6875-3.25-2.021029-3.694874.725153-8.118691-1.5625-12.25-2.287645-4.131311-4.580751-3.465189-7.59375-4.28125-8.095619-2.192673-22.096541-.949461-25.875.21875-3.075136.950763-9.086946 3.683165-8.9375 7.75.084377 2.296144 2.966686 7.760373 4.25 16.125 1.283316 8.364627.875 17.312498.875 17.3125 0 0-10.040937-3.138601-15.84375-1.8125-5.8028117 1.3261-7.2566735 3.224773-7.3437493 7.125-.0557958 2.499186.8200208 12.997253 7.1250003 16.3125 6.304979 3.31525 18.093749 3.906252 18.093749 3.90625 0 0-8.480956 31.367281-6.03125 36.093751 1.677884 3.23732 5.391291 2.85314 10.46875 4.28125 5.41781 1.52384 5.697087.86934 10.71875 3.0625 5.021664 2.19317 5.178561 1.40526 9.375 2.84375.89274.30603 5.482366 1.81282 7.15625.84375 1.452118-.84068 3.218851.29436 4-4.5.781147-4.79436-1.656149-9.99515-.875-14.6875.781152-4.69235 4.144514-4.8101 6.46875-4.90625 2.467681-.10209 5.189877.16468 6.25 4.5 1.060134 4.33532-.502157 9.16969 0 13.25.502169 4.08031 1.154783 2.64026 2 3.0625 1.206352.60263 9.418517 1.78158 17.84375.8125 8.425239-.96907 14.730319-3.76631 15.874999-4.6875.51801-.41688 3.87953-.71098 4.4375-4.28125 1.50926-9.65743.46875-34.468749.46875-34.468751 0 0 7.20272 1.043079 12.5.8125 3.51517-.15301 6.62304.296627 8.6875-1.4375 2.88791-2.42582 3.72556-2.820922 4.5625-7.15625.83694-4.335319-2.94503-15.237858-9.25-17.125-6.30499-1.887143-17.40625.218749-17.40625.21875 0 0 2.24671-31.916657 0-35.90625-1.86634-3.314132-5.85157-4.689772-14.5-7.75-7.567367-2.6777-14.72154-4.36331-18.624999-4.53125zm-26.09375 30.65625c6.119786-.184817 12.633734 3.272539 15.8125 8.9375 1.470574 2.620748 1.821083 3.964564 2.03125 7.96875.225056 4.287943.430588 4.98854 1.8125 6.3125.603738.612203.460166.452854.96875.96875 10.564215-10.41565 11.754078-12.115157 11.8125-12.84375.22129-2.759666.459403-3.47289 3.375-5.03125 3.41645-1.826062 6.06949-2.91141 6.21875-2.59375.15563.381616 2.403649 2.109059 2.343749 2.9375-.0599.82844-2.652359 5.822527-3.874999 7.65625-1.236988 1.85524-.97133.504743-3.9375 1.09375-.805105.159873-1.906767 1.383832-12.625 12.125.592325.602124 2.134498 2.19181 2.375 2.4375-.804269-.808789-2.133279-2.129522 8.65625 8.75 6.52087 6.51288 10.852589 10.756409 10.374999 11.34375-.53033 1.345045-10.380191 11.392381-11.312499 11.375001-.33486.35351-5.198032-4.42326-10.5625-9.750001-8.272155-8.118595-8.066246-7.951208-7.84375-7.71875-.003056.019224-.397592-.342938-1.5625-1.40625-.447612.395038-.964514 1.026134-1.625 2-.33627.000001-1.038647 1.282189-3 3.8125-4.827619 6.228061-11.437526 12.947911-14.9375 15.156251-4.065511 2.56518-6.468886 2.46142-9.1875-.375-1.15216-1.20208-2.247686-2.70264-2.4375-3.34375-1.01945-3.44332 6.193029-12.304537 16.84375-20.687501 3.422342-2.22816 5.066573-3.355659 5.6875-4.71875-.472943-.255372-1.514051-.375001-3.4375-.375-10.200845 0-17.798386-7.264342-17.8125-17.0625-.00313-2.174047.379274-4.857101.84375-5.96875 1.36217-3.260136 2.466474-2.750575 8.125 2.9375 5.134855 5.161669 6.096315 6.736005 8.71875 3.875 2.665521-2.908011 1.799964-3.538933-3.28125-8.59375-5.740645-5.710823-6.915406-6.773511-3.53125-8.1875 1.565477-.654098 3.255209-.979503 4.96875-1.03125z" overflow="visible" style="marker:none"/>
    <path fill="url(#c)" stroke="#0d0e11" stroke-linecap="round" stroke-linejoin="round" stroke-width="1.9252851" d="M86.8125 12.78125c-.557637-.023991-1.05187-.007215-1.46875.03125-3.318337.306174-4.79022 2.35606-5.125 4.90625-.674023 5.134459.054842 10.052882-.6875 15.09375-.390574 2.652199-2.832915 4.162724-5.34375 4.46875-2.510833.306024-3.794764-1.617878-4.6875-3.25-2.021029-3.694874.725153-8.118691-1.5625-12.25-2.287645-4.131311-4.580751-3.465189-7.59375-4.28125-8.095619-2.192673-22.096541-.949461-25.875.21875-3.075136.950763-9.086946 3.683165-8.9375 7.75.084377 2.296144 2.966686 7.760373 4.25 16.125 1.283316 8.364627.875 17.312498.875 17.3125 0 0-10.040937-3.138601-15.84375-1.8125-5.8028124 1.3261-7.2566742 3.224773-7.34375 7.125-.0557958 2.499186.8200208 12.997253 7.125 16.3125 6.30498 3.31525 18.09375 3.906252 18.09375 3.90625 0 0-8.480956 31.36728-6.03125 36.09375 1.677884 3.23732 5.391291 2.85314 10.46875 4.28125 5.41781 1.52384 5.697087.86934 10.71875 3.0625 5.021664 2.19317 5.178561 1.40526 9.375 2.84375.89274.30603 5.482366 1.81282 7.15625.84375 1.452118-.84068 3.218851.29436 4-4.5.781147-4.79436-1.656149-9.99515-.875-14.6875.781152-4.69235 4.144514-4.8101 6.46875-4.90625 2.467681-.10209 5.189877.16468 6.25 4.5 1.060134 4.33532-.502157 9.16969 0 13.25.502169 4.08031 1.154783 2.64026 2 3.0625 1.206352.60263 9.418517 1.78158 17.84375.8125 8.42524-.96907 14.73032-3.76631 15.875-4.6875.51801-.41688 3.87953-.71098 4.4375-4.28125 1.50926-9.65743.46875-34.468748.46875-34.46875 0 0 7.20272 1.043079 12.5.8125 3.51517-.15301 6.62304.296627 8.6875-1.4375 2.88791-2.42582 3.72556-2.820922 4.5625-7.15625.83694-4.335319-2.94503-15.237858-9.25-17.125-6.30499-1.887143-17.40625.218749-17.40625.21875 0 0 2.24671-31.916657 0-35.90625-1.86634-3.314132-5.85157-4.689772-14.5-7.75-7.567368-2.6777-14.721541-4.36331-18.625-4.53125z" overflow="visible" style="marker:none"/>
    <path fill="url(#d)" d="M31.98697 39.046222c-1.218702-5.636879-3.309315-12.308553-3.3765-14.023788-.118996-3.037953 5.453504-4.684178 7.902072-5.394404 3.008586-.872662 14.168305-1.790342 20.614418-.1524 2.399092.609603 4.220625.1143 6.042156 3.200417 1.821536 3.086114-4.08576 3.121328-7.28724 4.104715-7.626459 2.342592-22.316693 19.565183-23.894906 12.26546z" overflow="visible" style="marker:none"/>
    <path fill="url(#e)" d="M83.546419 34.739388c-1.218702-5.636879.262114-14.689506.194929-16.404741-.118996-3.037953 4.309193-3.077929 12.267151-1.42615 5.313011 1.102787 10.200051 3.765214 16.646171 6.593632 2.26672.99459 3.03014 1.701602 4.85167 4.787719 1.82154 3.086114-1.30798 5.899105-4.50946 6.882492-7.62646 2.342592-27.872248 6.866771-29.450461-.432952z" overflow="visible" style="marker:none"/>
  </g>
  <text xml:space="preserve" x="47.032692" y="99.335915" font-family="Times New Roman" font-size="80.00003052" font-weight="400" style="text-align:start;line-height:125%" transform="scale(.98967 1.01044)"><tspan x="47.032692" y="99.335915" style="text-align:start;line-height:125%">A</tspan></text>
</svg>